<svg xmlns="http://www.w3.org/2000/svg" version="1.1" xmlns:xlink="http://www.w3.org/1999/xlink" xmlns:svgjs="http://svgjs.dev/svgjs" viewBox="0 0 6.68048463275839 5.506165762414906"><g transform="matrix(0.8442812317129357,0,0,0.8442812317129357,3.340310443897327,4.807055142853428)"><g transform="matrix(1,0,0,1,0,0)"><path d=" M -2.3380850432987925 -1.1113320167738232 Q -2.4197736842855733 -1.099651307400988 -2.4914187278641275 -1.1160421177347322 Q -2.5630637714426823 -1.1324329280684764 -2.6192790888542694 -1.1771721762278204 Q -2.675494406265856 -1.2219114243871645 -2.7136214914428582 -1.2953792518014016 Q -2.7517485766198604 -1.3688470792156386 -2.766401300803535 -1.471320404003789 Q -2.78105402498721 -1.5737937287919395 -2.7650442593327362 -1.6550026180390616 Q -2.7490344936782627 -1.7362115072861837 -2.707610133697367 -1.7949123133941236 Q -2.6661857737164705 -1.8536131195020635 -2.602005325476769 -1.889425701041528 Q -2.537824877237068 -1.9252382825809926 -2.4561362362502877 -1.9369189919538279 Q -2.373480865784374 -1.9487379345736788 -2.3011107750964688 -1.9324507991751965 Q -2.228740684408564 -1.916163663776714 -2.172525366996977 -1.87142441561737 Q -2.1163100495853904 -1.826685167458026 -2.0781829644083882 -1.753217340043789 Q -2.0400558792313865 -1.6797495126295516 -2.0254031550477114 -1.5772761878414012 Q -2.0107504308640363 -1.4748028630532508 -2.0267601965185102 -1.3935939738061287 Q -2.042769962172984 -1.3123850845590068 -2.0841943221538797 -1.2536842784510667 Q -2.125618682134776 -1.1949834723431267 -2.1905241774838276 -1.1590672158684006 Q -2.2554296728328787 -1.1231509593936742 -2.3380850432987925 -1.1113320167738232 M -2.125459656138028 -1.5629690467752657 Q -2.1296066535485023 -1.5919709311492705 -2.1429366777607672 -1.612754260075675 Q -2.156266701973032 -1.6335375890020796 -2.187894566415349 -1.644305781894667 Q -2.2195224308576655 -1.655073974787254 -2.273798418186134 -1.6552049820344528 Q -2.3280744055146028 -1.6553359892816517 -2.414113329157484 -1.6430332302972452 Q -2.4991855233212315 -1.6308687045598547 -2.5507664139578803 -1.6156011567644257 Q -2.6023473045945296 -1.6003336089689966 -2.6292065736397894 -1.5812023046319532 Q -2.656065842685049 -1.5620710002949099 -2.6630371375345874 -1.5383847731811737 Q -2.670008432384126 -1.5146985460674374 -2.665861434973652 -1.4856966616934324 Q -2.6617144375631776 -1.4566947773194276 -2.6483498550391587 -1.4356697660232398 Q -2.6349852725151397 -1.414644754727052 -2.6038407728123896 -1.403807445210957 Q -2.57269627310964 -1.3929701356948618 -2.518903650520738 -1.392770011824155 Q -2.4651110279318362 -1.3925698879534483 -2.3800388337680887 -1.4047344136908388 Q -2.2939999101252075 -1.417037172675245 -2.2419356547489917 -1.4323738370941823 Q -2.189871399372776 -1.4477105015131193 -2.1625287655879495 -1.4669109224736705 Q -2.1351861318031227 -1.4861113434342215 -2.128249395265338 -1.5100392529177413 Q -2.121312658727554 -1.533967162401261 -2.125459656138028 -1.5629690467752657 M -2.760462791192717 -2.3464798991729 L -2.6611254005619034 -2.681170235041532 Q -2.634084683066753 -2.7739926460801607 -2.5975302460333847 -2.836232626261636 Q -2.5609758090000163 -2.898472606443111 -2.5171605090056173 -2.9328361497356275 Q -2.4733452090112182 -2.9671996930281432 -2.423863572716226 -2.975178729829268 Q -2.3743819364212335 -2.983157766630392 -2.3214868204028343 -2.9674582909083194 Q -2.2751450815902543 -2.9537038829748217 -2.238547915597342 -2.9217043266242806 Q -2.2019507496044297 -2.8897047702737395 -2.1816697022123037 -2.839627855579806 Q -2.1613886548201773 -2.7895509408858716 -2.160744232272765 -2.721363538292409 Q -2.1600998097253514 -2.6531761356989465 -2.185663557803771 -2.5670460352796063 L -2.2120609063630083 -2.4781073446292012 L -1.9845650976467077 -2.4105857056829416 L -2.064868610632177 -2.1400248467569707 L -2.760462791192717 -2.3464798991729 M -2.3141063514250524 -2.508394828765589 Q -2.3049880442674895 -2.540832549836311 -2.3070816565629344 -2.5689579968920286 Q -2.309175268858379 -2.5970834439477457 -2.321120323132316 -2.6194741532976256 Q -2.333065377406253 -2.6418648626475054 -2.3544632419935727 -2.658147851692156 Q -2.3758611065808926 -2.6744308407368065 -2.405819402378924 -2.6833225791988653 Q -2.435309599805111 -2.6920753842474547 -2.461961285038561 -2.689799020897523 Q -2.48861297027201 -2.6875226575475915 -2.5109085638494375 -2.6750400381950756 Q -2.533204157426865 -2.6625574188425594 -2.5504671608562215 -2.6404317576317555 Q -2.5677301642855777 -2.6183060964209517 -2.5781138331452036 -2.586753273962483 L -2.3141063514250524 -2.508394828765589 M -2.349657271161263 -3.3851829966546694 L -1.9658306037122577 -3.863503998657042 L -1.87862080318794 -3.7935228626332984 L -2.085508266454641 -3.5357017492928478 L -1.9331015028117249 -3.4127775338079323 L -1.7748035619370557 -3.610046864251586 L -1.6875937614127379 -3.5400657282278423 L -1.845891702287407 -3.3427963977841886 L -1.694321830633789 -3.221169794563883 L -1.4871287728866351 -3.4793717367275843 L -1.3999189723623173 -3.40939060070384 L -1.7837456398113223 -2.931069598701468 L -2.349657271161263 -3.3851829966546694 M -1.6248432167385056 -4.1566007536834855 L -1.4683935950330826 -4.238861559344597 L -0.8808727349451976 -4.110861115553805 L -1.0604144710277805 -4.453375925488491 L -0.9653345904333245 -4.50336868031016 L -0.6276562555924076 -3.861147305022153 L -0.7841058772978307 -3.7788864993610414 L -1.371377199277213 -3.9053631595309017 L -1.1920850013031328 -3.564372133217148 L -1.2871648818975887 -3.514379378395478 L -1.6248432167385056 -4.1566007536834855 M -0.4958051042120889 -4.266886646341185 Q -0.4980893032798156 -4.318594030624324 -0.486797232906087 -4.367235472381414 Q -0.47550516253235847 -4.415876914138505 -0.45148313945453233 -4.4584824822013 Q -0.42746111637670625 -4.501088050264095 -0.39140852529122705 -4.536893712792724 Q -0.35535593420574785 -4.572699375321353 -0.30838454365383466 -4.599212232135768 Q -0.2614131531019214 -4.625725088950183 -0.20395689597615735 -4.641704077222313 Q -0.14650063885039327 -4.657683065494443 -0.07967128369199739 -4.660635285044241 Q -0.036744398626750385 -4.66253160125141 0.0027609846236047453 -4.6589004389668585 Q 0.042266367873959765 -4.655269276682306 0.0773207656656909 -4.647287051590677 Q 0.11237516345742204 -4.639304826499049 0.14243689765890233 -4.628169503332798 Q 0.1724986318603825 -4.617034180166548 0.19700447529217624 -4.604431529170234 L 0.1586734412830081 -4.520626985025029 Q 0.1307745083142876 -4.532590987174577 0.0954977568143126 -4.540074632230195 Q 0.06022100531433772 -4.547558277285814 0.022659980882246633 -4.545899000604541 Q -0.027583986864576526 -4.5436794486802405 -0.06971355716090016 -4.523734328525183 Q -0.11184312745722369 -4.503789208370126 -0.14159734498095433 -4.469239294487221 Q -0.17135156250468492 -4.434689380604317 -0.18707698058297673 -4.386829608441157 Q -0.20280239866126842 -4.338969836277998 -0.20021651292421933 -4.280433174825388 Q -0.197652176234979 -4.222384318884884 -0.17801169468565253 -4.176086852687858 Q -0.15837121313632602 -4.129789386490833 -0.12591945334275462 -4.097743073447489 Q -0.09346769354918322 -4.065696760404147 -0.049976621947160904 -4.049289595383471 Q -0.0064855503451386465 -4.032882430362796 0.04327061188957948 -4.035080433239288 L 0.03243144084178207 -4.280446605828143 L 0.31682205439904354 -4.293009700700639 L 0.2701630511759676 -4.1985733579406705 L 0.27886886649069953 -4.001499931050218 L 0.2793997700984221 -4.000545869073816 Q 0.25612222239172666 -3.985343605880141 0.22158204981099705 -3.9706213256110745 Q 0.18704187723026733 -3.955899045342008 0.14433439393685565 -3.9435041361006746 Q 0.1016269106434442 -3.9311092268593417 0.05312649705444983 -3.9226128504211015 Q 0.004626083465455455 -3.9141164739828613 -0.04659349530557788 -3.9118538239629435 Q -0.14659362528711917 -3.9074362691621514 -0.2281413494208337 -3.9334036842799707 Q -0.3096890735545482 -3.9593710993977895 -0.3680385829426459 -4.007868634914765 Q -0.4263880923307437 -4.05636617043174 -0.45939422349452563 -4.123089772930162 Q -0.4924003546583076 -4.1898133754285825 -0.4958051042120889 -4.266886646341185 M 0.7251461727735133 -4.5779221750946295 L 1.1120355086567257 -4.418476482827919 Q 1.1869755667157844 -4.387592019681742 1.2366688258617882 -4.348628057671103 Q 1.2863620850077915 -4.309664095660463 1.3123366251868411 -4.265687732224159 Q 1.3383111653658908 -4.221711368787855 1.3408994164599681 -4.174169967815948 Q 1.343487667554046 -4.126628566844041 1.3237662633763665 -4.078775276758136 Q 1.2993935846284796 -4.019635833350083 1.2525197496345122 -3.9853492117962794 Q 1.2056459146405445 -3.9510625902424756 1.1394064274599676 -3.946674042171934 L 1.1658362664932647 -3.61098676381092 L 0.8710419417187749 -3.732478055584737 L 0.8649681850741836 -4.020166999285879 L 0.8098917568621045 -4.042865219188491 L 0.7096102771284327 -3.7995357535629934 L 0.44867441232038513 -3.9070732216261885 L 0.7251461727735133 -4.5779221750946295 M 0.8593675994014123 -4.118065184842548 Q 0.8914202748363109 -4.104855565063159 0.9204222779340869 -4.103465632683612 Q 0.949424281031863 -4.1020757003040655 0.9738215410869158 -4.111297495824877 Q 0.9982188011419685 -4.120519291345689 1.0170947445643912 -4.139410250417452 Q 1.035970687986814 -4.158301209489215 1.047133746955312 -4.185387977462369 Q 1.0582968059238096 -4.212474745435523 1.0582120117650247 -4.239179845785235 Q 1.05812721760624 -4.265884946134947 1.0473116792961927 -4.289618718314806 Q 1.0364961409861457 -4.3133524904946645 1.0149361772007013 -4.332800268189647 Q 0.9933762134152573 -4.352248045884629 0.9613235379803586 -4.365457665664018 L 0.9459743694622382 -4.371783399079501 L 0.843566984750406 -4.124576969240838 L 0.8593675994014123 -4.118065184842548 M 1.8110207478138123 -3.7373541264956156 L 1.8882495683103242 -3.923409755851503 L 2.090359267943024 -3.705289169133636 L 1.799374947554087 -2.9510545049555876 L 1.5826629050907814 -3.1849342145233495 L 1.6313995761568822 -3.303317421504545 L 1.4369229193674538 -3.513200284914512 L 1.3155064055762935 -3.4732545302998403 L 1.2315429343003115 -3.563869486686737 L 1.8110207478138123 -3.7373541264956156 M 1.6785721474162552 -3.4169229762192646 L 1.7623103672026954 -3.6196609528253405 L 1.5541203619281396 -3.551233682326325 L 1.6785721474162552 -3.4169229762192646 M 2.5366618524204396 -3.0703175257118063 L 2.590563713553201 -2.9019788383989678 L 2.362677566305757 -2.3455322744399796 L 2.7311254729712298 -2.462996184190902 L 2.7638835101237365 -2.360690904608514 L 2.072857848944514 -2.1394252536602183 L 2.0189559878117533 -2.3077639409730573 L 2.2452981628960167 -2.864228828423522 L 1.8783942283937243 -2.746746595181123 L 1.8456361912412176 -2.849051874763511 L 2.5366618524204396 -3.0703175257118063 M 2.8075874051463128 -1.8402707289157707 L 2.765146866494353 -1.5449650177490106 Q 2.7472259843794498 -1.4202696438029812 2.7106570992782903 -1.3322918806509392 Q 2.6740882141771314 -1.2443141174988974 2.6200434291648262 -1.1909123211791037 Q 2.5659986441525207 -1.1375105248593098 2.4956167869529073 -1.1180277280103947 Q 2.425234929753294 -1.0985449311614799 2.339688103441483 -1.110839489821704 Q 2.2633242697846123 -1.121814293597497 2.2015193642933766 -1.160294614703877 Q 2.1397144588021404 -1.198774935810257 2.0992710825491403 -1.2657563152830102 Q 2.05882770629614 -1.3327376947557634 2.0439235009893455 -1.428113031338957 Q 2.0290192956825504 -1.523488367922151 2.0469401777974534 -1.6481837418681804 L 2.0893807164494134 -1.9434894530349405 L 2.8075874051463128 -1.8402707289157707 M 2.1545951414797258 -1.6489906993843437 Q 2.147649063140616 -1.6006591590951849 2.1570749779589677 -1.559840642578734 Q 2.1665008927773193 -1.519022126062283 2.1940613204870663 -1.4876831702813784 Q 2.2216217481968137 -1.4563442145004741 2.268145853077381 -1.435105601384367 Q 2.314669957957948 -1.4138669882682602 2.3823341143627705 -1.4041424785935064 Q 2.449514955364701 -1.3944874297021441 2.4989636883498094 -1.4021797350165643 Q 2.548412421334918 -1.4098720403309843 2.5825094378855438 -1.4325964039309698 Q 2.6166064544361696 -1.4553207675309552 2.6359030756981716 -1.49176470973419 Q 2.655199696960174 -1.528208651937425 2.6620068537325015 -1.5755735614208006 L 2.1545951414797258 -1.6489906993843437" fill="#ffffff" fill-rule="nonzero"></path></g><g transform="matrix(1,0,0,1,0,0)"><g clip-path="url(#SvgjsClipPath13947)"><g clip-path="url(#a5d2d8462-2f9f-4a2b-bf2d-35754e78c542cbe4d555-9635-447e-b636-69badb652965)"><path d=" M 1.1882133463362536 -0.6251262590432907 C 1.1882133463362536 -0.6251262590432907 0.16708540856857557 -1.1490231113758353 -0.5477280786852453 -1.9402784637355701 C -0.8931523206486396 -2.3531534211971605 -0.9684147383725521 -2.7953265353652665 -0.7651053592201069 -3.2045776834792603 C -0.7490761191104467 -3.2368276121881476 -0.7310946162488177 -3.2680697598585278 -0.7112610222157169 -3.2981300823443482 C -0.622033263751302 -3.4333904755874354 -0.46494454722103706 -3.5230968503807794 -0.21685035443319534 -3.5251822500996792 C -0.213841908937077 -3.5252506238609547 -0.21081637000064013 -3.5252506238609547 -0.20779083106420304 -3.5252506238609547 L -0.20464563804553382 -3.5252506238609547 C -0.2612932992622148 -3.5395407399675163 -0.3164880180517934 -3.5462926488934627 -0.3701443272126749 -3.5462926488934627 C -1.0997436403423044 -3.546241368572507 -1.533489688433215 -2.156288269044923 -0.8349149694823048 -1.4177319931882142 C -0.7072098768601496 -1.2774632219317015 -0.10126451099710732 -0.68939759464218 1.1882133463362536 -0.6251262590432907" fill="#facf0e" transform="matrix(1,0,0,1,0,0)" fill-rule="nonzero"></path></g><g clip-path="url(#a5d2d8462-2f9f-4a2b-bf2d-35754e78c542cbe4d555-9635-447e-b636-69badb652965)"><path d=" M -0.7514647938456619 -1.300180404115458 C -1.178407652689669 -0.2747278259471102 -0.5159513731324966 -0.1875 -0.5159513731324966 -0.1875 C -0.5555397809109616 -0.5918282373021637 -0.2956340208627922 -0.9810971536834172 -0.2956340208627922 -0.9810971536834172 C -0.5952478427716585 -1.1446813775348468 -0.7514647938456619 -1.300180404115458 -0.7514647938456619 -1.300180404115458" fill="#1192dc" transform="matrix(1,0,0,1,0,0)" fill-rule="nonzero"></path></g><g clip-path="url(#a5d2d8462-2f9f-4a2b-bf2d-35754e78c542cbe4d555-9635-447e-b636-69badb652965)"><path d=" M -0.20780792450452223 -3.492448311889075 C -0.4308089469042866 -3.492448311889075 -0.5909744826919451 -3.4209806379159478 -0.6839286111458711 -3.280096502807956 C -0.6948584995452469 -3.2635368256728388 -0.7051840300884411 -3.246586078955602 -0.7148848315633158 -3.229277704740003 C -0.6263066238310155 -3.263173996892291 -0.5323439823982772 -3.2510376542659047 -0.47032898092147624 -3.2197053781614464 C -0.028360988037196888 -2.996447954156899 -0.21708966259765972 -2.477986815845749 -0.47147424142283934 -1.9046899209917174 C -0.3777167212739272 -1.7965055372136927 -0.17115958846090007 -1.6026659239978926 -0.03911276199775582 -1.499729226397756 L 0.022389436269479646 -1.6449038150257798 C 0.34914764140468546 -2.415817973406079 0.5928659134709009 -3.13852863008721 -0.13444287865600235 -3.4922602840455674 L -0.20473110524712868 -3.492448311889075 Z" fill="#1192dc" transform="matrix(1,0,0,1,0,0)" fill-rule="nonzero"></path></g></g></g></g><defs><clipPath id="SvgjsClipPath13947"><path d=" M -1.1882192874326911 -3.5462796790422626 h 2.3764385748653822 v 3.3587796790422626 h -2.3764385748653822 Z"></path></clipPath><clipPath id="a5d2d8462-2f9f-4a2b-bf2d-35754e78c542cbe4d555-9635-447e-b636-69badb652965"><path d=" M -1.188219287432691 -0.1875 L 1.1882133463362536 -0.1875 L 1.1882133463362536 -3.546275555453145 L -1.188219287432691 -3.546275555453145 Z"></path></clipPath></defs></svg>